<?xml version="1.0" encoding="utf-8"?>
<!-- Generator: Adobe Illustrator 23.0.3, SVG Export Plug-In . SVG Version: 6.00 Build 0)  -->
<svg version="1.1" id="Capa_1" xmlns="http://www.w3.org/2000/svg" xmlns:xlink="http://www.w3.org/1999/xlink" x="0px" y="0px"
	 viewBox="0 0 500 500" enable-background="new 0 0 500 500" xml:space="preserve">

	<g>
		<path fill="#049999" d="M479.12,386.93l-73.96-73.97c-14.73-14.67-39.13-14.23-54.37,1.02l-37.26,37.25
			c-2.35-1.3-4.79-2.65-7.35-4.09c-23.53-13.04-55.73-30.91-89.62-64.82c-33.99-33.98-51.87-66.24-64.95-89.78
			c-1.38-2.49-2.7-4.9-4.01-7.18l25.01-24.97l12.29-12.31c15.27-15.27,15.69-39.66,0.99-54.37l-73.96-73.97
			c-14.7-14.69-39.1-14.25-54.37,1.02L36.72,41.72l0.57,0.57c-6.99,8.92-12.83,19.2-17.18,30.3c-4.01,10.56-6.5,20.63-7.64,30.73
			C2.7,184.27,39.7,258.26,140.1,358.66c138.79,138.78,250.63,128.29,255.46,127.78c10.51-1.26,20.58-3.77,30.81-7.74
			c11-4.3,21.27-10.13,30.19-17.1l0.46,0.4l21.12-20.68C493.37,426.06,493.81,401.67,479.12,386.93z"/>
	</g>

</svg>
