<?xml version="1.0" encoding="utf-8"?>
<!-- Generator: Adobe Illustrator 23.0.3, SVG Export Plug-In . SVG Version: 6.00 Build 0)  -->
<svg version="1.1" id="Capa_1" xmlns="http://www.w3.org/2000/svg" xmlns:xlink="http://www.w3.org/1999/xlink" x="0px" y="0px"
	 viewBox="0 0 500 500" enable-background="new 0 0 500 500" xml:space="preserve">
<g>
	<g>
		<path fill="#1BD741" d="M38.2,462.76l29.79-105.8c-19.16-32.54-29.24-69.57-29.24-107.6c0-117.11,95.28-212.39,212.39-212.39
			s212.39,95.28,212.39,212.39s-95.28,212.39-212.39,212.39c-36.49,0-72.22-9.34-103.84-27.08L38.2,462.76z"/>
		<path fill="#FFFFFF" d="M10.26,490.73l33.7-119.7c-21.67-36.82-33.08-78.71-33.08-121.74C10.88,116.8,118.68,9,251.18,9
			s240.29,107.8,240.29,240.3s-107.79,240.3-240.29,240.3c-41.29,0-81.71-10.57-117.48-30.63L10.26,490.73z M140.01,415.24
			l7.36,4.49c31.18,19.04,67.08,29.1,103.81,29.1c110.02,0,199.53-89.51,199.53-199.53S361.2,49.76,251.18,49.76
			S51.64,139.27,51.64,249.3c0,38.34,10.9,75.56,31.51,107.66l4.95,7.71L68.69,433.6L140.01,415.24z"/>
		<path fill="#FFFFFF" d="M183.67,137.45l-15.59-0.85c-4.9-0.27-9.7,1.37-13.4,4.58c-7.56,6.56-19.65,19.25-23.36,35.79
			c-5.54,24.66,3.02,54.85,25.16,85.05s63.41,78.5,136.38,99.14c23.51,6.65,42.01,2.17,56.28-6.96c11.3-7.23,19.09-18.84,21.9-31.95
			l2.49-11.63c0.79-3.7-1.09-7.45-4.52-9.03l-52.7-24.29c-3.42-1.58-7.48-0.58-9.78,2.4l-20.69,26.82
			c-1.56,2.03-4.24,2.83-6.65,1.98c-14.17-4.98-61.62-24.85-87.66-75.01c-1.13-2.18-0.85-4.82,0.75-6.67l19.77-22.87
			c2.02-2.34,2.53-5.62,1.32-8.46l-22.72-53.14C189.45,139.52,186.74,137.62,183.67,137.45z"/>
	</g>
</g>
</svg>
