<?xml version="1.0" standalone="no"?>
<!DOCTYPE svg PUBLIC "-//W3C//DTD SVG 20010904//EN"
 "http://www.w3.org/TR/2001/REC-SVG-20010904/DTD/svg10.dtd">
<svg version="1.0" xmlns="http://www.w3.org/2000/svg"
 width="700.000000pt" height="700.000000pt" viewBox="0 0 700.000000 700.000000"
 preserveAspectRatio="xMidYMid meet">
<metadata>
Created by potrace 1.11, written by Peter Selinger 2001-2013
</metadata>
<g transform="translate(0.000000,700.000000) scale(0.100000,-0.100000)"
fill="#000000" stroke="none">
<path d="M3475 6874 c-33 -20 -73 -45 -90 -54 -16 -10 -255 -151 -530 -315
-274 -163 -512 -304 -528 -313 -16 -10 -37 -21 -46 -27 -19 -12 -289 -173
-329 -196 -15 -9 -173 -103 -352 -209 -179 -106 -337 -200 -352 -209 -301
-176 -700 -416 -705 -424 -4 -6 -8 -784 -9 -1728 l-2 -1718 41 -22 c23 -12 83
-43 132 -69 50 -26 144 -75 210 -110 264 -138 386 -202 580 -305 44 -23 134
-70 200 -105 66 -34 152 -79 190 -100 39 -21 129 -68 200 -105 72 -37 162 -85
200 -105 39 -21 124 -66 190 -100 66 -35 152 -80 190 -100 98 -52 292 -154
405 -213 52 -27 127 -66 165 -87 294 -158 326 -173 354 -158 14 7 123 69 241
137 118 68 233 133 255 146 22 12 101 58 175 100 74 43 151 87 170 98 19 10
154 88 300 172 315 181 799 459 1070 614 107 61 202 115 210 120 8 5 99 58
203 117 l187 107 1 41 c0 23 2 50 4 61 2 11 7 58 10 104 3 47 8 101 10 120 2
20 6 72 10 116 3 44 8 96 10 115 4 35 4 36 -58 59 -34 13 -80 32 -102 41 -22
10 -121 50 -220 89 l-179 71 -251 -132 c-137 -72 -297 -156 -355 -186 -58 -30
-118 -62 -135 -72 -16 -10 -88 -48 -160 -85 -71 -37 -143 -76 -160 -85 -16
-10 -93 -50 -170 -90 -77 -40 -162 -85 -190 -100 -27 -15 -104 -56 -170 -90
-66 -35 -147 -77 -180 -95 -95 -51 -313 -166 -528 -279 l-128 -68 -67 40 c-57
34 -112 66 -297 172 -16 9 -151 87 -300 172 -148 86 -289 166 -311 179 -295
169 -424 245 -424 251 0 3 53 35 117 71 188 103 212 116 738 404 275 151 507
278 515 283 8 5 112 62 229 127 118 65 258 142 310 171 53 29 104 56 114 59
20 6 18 -18 18 343 -1 145 -4 267 -9 271 -4 4 -61 32 -127 62 -66 30 -211 95
-321 146 -111 50 -204 91 -207 91 -3 0 -138 -77 -299 -172 -161 -94 -363 -212
-448 -261 -85 -49 -171 -100 -190 -112 -31 -20 -402 -237 -490 -287 -45 -26
-303 -177 -398 -234 -40 -24 -77 -44 -82 -44 -12 0 -11 -27 -15 320 -7 657 -9
1130 -5 1133 6 5 751 465 789 488 14 8 30 18 35 22 11 8 331 206 414 256 24
14 51 31 60 36 9 6 42 26 73 45 30 19 64 40 75 47 10 6 150 92 309 191 160 98
295 182 301 185 6 3 53 -19 105 -51 52 -31 105 -63 119 -69 14 -7 54 -31 89
-53 34 -22 64 -40 66 -40 1 0 78 -45 169 -100 91 -55 168 -100 170 -100 2 0
85 -49 186 -110 101 -60 184 -110 186 -110 1 0 39 -22 84 -50 45 -27 83 -50
85 -50 3 0 137 -79 185 -110 23 -14 123 -73 145 -85 11 -6 133 -78 270 -160
138 -81 264 -156 280 -165 17 -9 73 -43 125 -74 52 -31 98 -56 102 -56 4 0 38
14 75 31 161 74 284 130 363 166 30 13 62 28 70 32 17 9 17 2 22 350 l3 255
-95 58 c-52 32 -102 63 -110 68 -8 5 -44 27 -78 47 -35 21 -76 45 -90 54 -428
259 -1054 636 -1077 649 -16 9 -203 122 -415 250 -212 128 -398 241 -415 250
-16 10 -162 97 -324 195 -162 98 -301 179 -310 181 -9 2 -43 -13 -76 -32z"/>
</g>
</svg>
