<?xml version="1.0" encoding="utf-8"?>
<!-- Generator: Adobe Illustrator 23.0.3, SVG Export Plug-In . SVG Version: 6.00 Build 0)  -->
<svg version="1.1" id="Capa_1" xmlns="http://www.w3.org/2000/svg" xmlns:xlink="http://www.w3.org/1999/xlink" x="0px" y="0px"
	 viewBox="0 0 460 224" enable-background="new 0 0 460 224" xml:space="preserve">
<g>
	<g>
		<polygon id="c_1_" fill="#23234C" points="44.32,96.51 44.54,120.74 76.24,102.18 87.23,107.18 87.23,117.22 75.54,113.48 
			34.52,137.82 33.6,90.73 78.41,65.12 78.41,75.43 		"/>
		<polygon fill="#27378A" points="35.84,136.45 75.69,113.39 87.29,117.11 53.29,135.8 76.68,149.27 116.83,128.03 126.16,131.75 
			78.4,158.83 		"/>
		<polygon id="top_1_" fill="#27378A" points="78.54,65.39 34.97,90.35 28.24,84.99 78.09,55.4 126.49,84.57 117.59,88.89 		"/>
		<polygon fill="#23234C" points="78.41,168.53 78.4,158.83 126.16,131.75 125.32,141.59 		"/>
		<polygon id="topRight_1_" fill="#383940" points="78.65,65.42 117.61,88.88 117.62,98.42 78.65,75.39 		"/>
		<polygon fill="#23234C" points="117.61,98.52 117.61,88.89 126.52,84.57 126.32,94.48 117.63,98.46 		"/>
		<polygon id="left_1_" fill="#383940" points="28.17,84.92 34.91,90.29 35.78,136.47 78.41,158.89 78.42,168.6 28.09,142.12 		"/>
	</g>
	<g>
		<path fill="#FFFFFF" d="M137.83,113.12c0-18.08,10.08-28.75,24.65-28.75s24.65,10.72,24.65,28.75c0,18.08-10.08,29.19-24.65,29.19
			S137.83,131.2,137.83,113.12z M176.94,113.12c0-12.55-5.67-20.13-14.46-20.13c-8.79,0-14.46,7.59-14.46,20.13
			c0,13.06,5.67,21.06,14.46,21.06C171.26,134.17,176.94,126.18,176.94,113.12z M157.45,140.98l10.15-0.92c2.19,5.57,7.79,8,13.74,8
			c2.46,0,4.48-0.39,6.05-0.89l1.81,7.38c-1.88,0.85-5.11,1.57-8.96,1.57C168.73,156.12,160.87,149.66,157.45,140.98z"/>
		<path fill="#FFFFFF" d="M198.1,116.77V85.39h9.91v32.13c0,12.17,4.55,16.17,11.31,16.17c6.84,0,11.55-4,11.55-16.17V85.39h9.54
			v31.38c0,18.36-8.14,25.54-21.09,25.54C206.38,142.31,198.1,135.13,198.1,116.77z"/>
		<path fill="#FFFFFF" d="M254.36,85.39h9.91v55.89h-9.91V85.39z"/>
		<path fill="#FFFFFF" d="M275.52,113.53c0-18.29,11.45-29.16,25.6-29.16c7.01,0,12.58,3.35,16.1,7.08l-5.3,6.39
			c-2.87-2.87-6.22-4.85-10.6-4.85c-9.09,0-15.62,7.69-15.62,20.24c0,12.75,6.02,20.48,15.38,20.48c4.96,0,8.79-2.29,11.93-5.74
			l5.3,6.22c-4.53,5.26-10.36,8.14-17.6,8.14C286.67,142.31,275.52,132.02,275.52,113.53z"/>
		<path fill="#FFFFFF" d="M321.94,113.12c0-18.08,10.08-28.75,24.65-28.75s24.65,10.72,24.65,28.75c0,18.08-10.08,29.19-24.65,29.19
			S321.94,131.2,321.94,113.12z M361.04,113.12c0-12.55-5.68-20.13-14.46-20.13c-8.79,0-14.46,7.59-14.46,20.13
			s5.68,20.58,14.46,20.58C355.37,133.7,361.04,125.66,361.04,113.12z"/>
		<path fill="#FFFFFF" d="M382.48,85.39h11.21l9.88,27.31c1.23,3.56,2.36,7.32,3.59,10.97h0.34c1.23-3.66,2.29-7.42,3.52-10.97
			l9.67-27.31h11.21v55.89h-9.09v-25.57c0-5.16,0.79-12.6,1.27-17.78h-0.34l-4.51,12.99l-9.2,25.11h-5.88l-9.23-25.11l-4.44-12.99
			h-0.34c0.48,5.18,1.27,12.61,1.27,17.78v25.57h-8.92V85.39z"/>
	</g>
</g>
</svg>
