<?xml version="1.0" encoding="utf-8"?>
<!-- Generator: Adobe Illustrator 23.0.3, SVG Export Plug-In . SVG Version: 6.00 Build 0)  -->
<svg version="1.1" id="Ñëîé_1" xmlns="http://www.w3.org/2000/svg" xmlns:xlink="http://www.w3.org/1999/xlink" x="0px" y="0px"
	 viewBox="0 0 750 1624" enable-background="new 0 0 750 1624" xml:space="preserve">
<rect x="-243.37" y="348.22" display="none" fill="#180D5B" width="1236.75" height="927.56"/>
<g>
	
		<linearGradient id="SVGID_1_" gradientUnits="userSpaceOnUse" x1="-776.8899" y1="869.8491" x2="-671.6376" y2="869.8491" gradientTransform="matrix(0.866 0.5 -1 0.5774 1772.9486 569.3693)">
		<stop  offset="0" style="stop-color:#42E8E0"/>
		<stop  offset="0.1507" style="stop-color:#43E3E0"/>
		<stop  offset="0.3285" style="stop-color:#45D5DF"/>
		<stop  offset="0.5199" style="stop-color:#49BDDD"/>
		<stop  offset="0.7209" style="stop-color:#4E9CDB"/>
		<stop  offset="0.9274" style="stop-color:#5472D8"/>
		<stop  offset="1" style="stop-color:#5761D7"/>
	</linearGradient>
	<path fill="url(#SVGID_1_)" d="M319.55,736.61c-0.32,0-0.65-0.08-0.95-0.26l-87.33-50.42c-0.91-0.53-1.23-1.7-0.7-2.61
		c0.53-0.91,1.7-1.23,2.61-0.7l87.33,50.42c0.92,0.53,1.23,1.7,0.7,2.61C320.85,736.27,320.21,736.61,319.55,736.61z"/>
	
		<linearGradient id="SVGID_2_" gradientUnits="userSpaceOnUse" x1="304.5235" y1="2703.0803" x2="459.8012" y2="2703.0803" gradientTransform="matrix(1 0 0 -1 -298.1047 3470.7776)">
		<stop  offset="0" style="stop-color:#42E8E0"/>
		<stop  offset="0.1507" style="stop-color:#43E3E0"/>
		<stop  offset="0.3285" style="stop-color:#45D5DF"/>
		<stop  offset="0.5199" style="stop-color:#49BDDD"/>
		<stop  offset="0.7209" style="stop-color:#4E9CDB"/>
		<stop  offset="0.9274" style="stop-color:#5472D8"/>
		<stop  offset="1" style="stop-color:#5761D7"/>
	</linearGradient>
	<path fill="url(#SVGID_2_)" d="M159.64,851.32c-0.35,0-0.71-0.09-1.03-0.28L7.44,763.08c-0.64-0.37-1.03-1.06-1.02-1.81
		c0.01-0.74,0.42-1.42,1.07-1.78l138.54-75.17c1-0.54,2.24-0.17,2.78,0.83c0.54,1,0.17,2.24-0.83,2.79L12.66,761.36l148.01,86.13
		c0.98,0.57,1.31,1.83,0.74,2.81C161.04,850.96,160.35,851.32,159.64,851.32z"/>
	<g>
		
			<linearGradient id="SVGID_3_" gradientUnits="userSpaceOnUse" x1="580.4272" y1="946.8619" x2="580.4272" y2="848.629" gradientTransform="matrix(-0.866 -0.5 0 1.1547 928.8361 -166.7211)">
			<stop  offset="0" style="stop-color:#C0BFF6"/>
			<stop  offset="0.2938" style="stop-color:#C5C4F7"/>
			<stop  offset="0.6399" style="stop-color:#D3D2F9"/>
			<stop  offset="1" style="stop-color:#E9E9FD"/>
		</linearGradient>
		<path fill="url(#SVGID_3_)" d="M344.28,589.12l163.8,94.57c4.48,2.58,8.11-0.16,8.11-6.13v-91.81c0-5.97-3.63-12.9-8.11-15.49
			l-163.8-94.57c-4.48-2.58-8.11,0.16-8.11,6.13v91.81C336.18,579.6,339.81,586.54,344.28,589.12z"/>
		<g>
			<g>
				<g>
					<g>
						<g>
							<g>
								
									<linearGradient id="SVGID_4_" gradientUnits="userSpaceOnUse" x1="280.0703" y1="836.9716" x2="688.9545" y2="836.9716" gradientTransform="matrix(-1 0 0 1 935.6085 0)">
									<stop  offset="0" style="stop-color:#42E8E0"/>
									<stop  offset="0.1507" style="stop-color:#43E3E0"/>
									<stop  offset="0.3285" style="stop-color:#45D5DF"/>
									<stop  offset="0.5199" style="stop-color:#49BDDD"/>
									<stop  offset="0.7209" style="stop-color:#4E9CDB"/>
									<stop  offset="0.9274" style="stop-color:#5472D8"/>
									<stop  offset="1" style="stop-color:#5761D7"/>
								</linearGradient>
								<path fill="url(#SVGID_4_)" d="M490.42,953.43L249.45,814.3c-1.76-1.01-2.8-2.83-2.8-4.86c0-2.03,1.05-3.84,2.8-4.86
									l149.73-86.44l1.17-0.67l252.38,145.71c1.76,1.02,2.8,2.83,2.8,4.86c0,2.03-1.05,3.84-2.8,4.86l-139.49,80.53
									c-3.52,2.03-7.46,3.05-11.41,3.05C497.89,956.47,493.94,955.46,490.42,953.43z M251.8,808.65c-0.4,0.23-0.46,0.6-0.46,0.8
									c0,0.2,0.06,0.57,0.46,0.8l240.97,139.12c5.59,3.23,12.55,3.23,18.14,0l139.49-80.53c0.4-0.23,0.46-0.6,0.46-0.8
									c0-0.2-0.06-0.57-0.46-0.8L400.35,722.88L251.8,808.65z"/>
							</g>
							<g>
								<g>
									
										<linearGradient id="SVGID_5_" gradientUnits="userSpaceOnUse" x1="225.6804" y1="640.7051" x2="535.6194" y2="640.7051" gradientTransform="matrix(-1 0 0 1 935.6085 0)">
										<stop  offset="0" style="stop-color:#C0BFF6"/>
										<stop  offset="0.2938" style="stop-color:#C5C4F7"/>
										<stop  offset="0.6399" style="stop-color:#D3D2F9"/>
										<stop  offset="1" style="stop-color:#E9E9FD"/>
									</linearGradient>
									<path fill="url(#SVGID_5_)" d="M400.05,659.98l33.57-199.17l-2.7-1.14l4.06-2.33l-0.01,0.02c0.79-0.52,1.9-0.49,3.13,0.22
										l268.3,154.9c2.2,1.27,3.87,4.53,3.48,6.82l-33.84,200.75c-0.18,1.05-0.69,1.74-1.41,2.04l0,0l-3.97,2.29l-0.68-3.71
										l0.23,0.07L403.53,666.8C401.33,665.52,399.66,662.26,400.05,659.98z"/>
									
										<linearGradient id="SVGID_6_" gradientUnits="userSpaceOnUse" x1="225.6824" y1="720.1904" x2="278.902" y2="720.1904" gradientTransform="matrix(-1 0 0 1 935.6085 0)">
										<stop  offset="0" style="stop-color:#5761D7"/>
										<stop  offset="0.1779" style="stop-color:#5C66D9"/>
										<stop  offset="0.3876" style="stop-color:#6A73DF"/>
										<stop  offset="0.6134" style="stop-color:#8289E8"/>
										<stop  offset="0.849" style="stop-color:#A3A7F5"/>
										<stop  offset="1" style="stop-color:#BCBEFF"/>
									</linearGradient>
									<path fill="url(#SVGID_6_)" d="M704.89,617.94l4.41-1.95c0.49,1.13,0.74,2.32,0.57,3.32l-33.84,200.75
										c-0.18,1.05-0.69,1.74-1.41,2.04l0,0l-3.97,2.29l-0.68-3.71l0.23,0.07l-13.49-7.79L704.89,617.94z"/>
									<path fill="#24126A" d="M399.32,669.21l268.3,154.9c2.07,1.2,3.84,0.51,4.21-1.64l33.84-200.75
										c0.39-2.28-1.28-5.54-3.48-6.82L433.88,460c-2.07-1.2-3.85-0.51-4.21,1.64L395.84,662.4
										C395.45,664.68,397.12,667.94,399.32,669.21z"/>
									<g opacity="0.51">
										<polygon fill="#453C9E" points="437.39,472.82 696.01,622.13 663.94,811.2 405.49,661.99 										"/>
									</g>
								</g>
								<g>
									
										<linearGradient id="SVGID_8_" gradientUnits="userSpaceOnUse" x1="267.205" y1="809.5411" x2="704.9403" y2="809.5411" gradientTransform="matrix(-1 0 0 1 935.6085 0)">
										<stop  offset="0" style="stop-color:#5761D7"/>
										<stop  offset="0.1779" style="stop-color:#5C66D9"/>
										<stop  offset="0.3876" style="stop-color:#6A73DF"/>
										<stop  offset="0.6134" style="stop-color:#8289E8"/>
										<stop  offset="0.849" style="stop-color:#A3A7F5"/>
										<stop  offset="1" style="stop-color:#BCBEFF"/>
									</linearGradient>
									<path fill="url(#SVGID_8_)" d="M230.67,764.25l14.64,7.65l146.82-84.77c2.46-1.42,6.75-1.24,9.58,0.4l253.22,146.2
										c2.42-1.36,13.47-6.67,13.47-6.67l-5.36,13.96c0,0-0.02-0.01-0.02-0.02c-0.22,0.62-0.7,1.2-1.5,1.66l-154.63,89.28
										c-2.46,1.42-6.75,1.24-9.58-0.4L238.19,781.94c-1.16-0.67-1.88-1.49-2.17-2.31l-0.02,0.01L230.67,764.25z"/>
									
										<linearGradient id="SVGID_9_" gradientUnits="userSpaceOnUse" x1="414.2856" y1="794.9454" x2="852.254" y2="794.9454" gradientTransform="matrix(-1 0 0 1 935.6085 0)">
										<stop  offset="0" style="stop-color:#C0BFF6"/>
										<stop  offset="0.2938" style="stop-color:#C5C4F7"/>
										<stop  offset="0.6399" style="stop-color:#D3D2F9"/>
										<stop  offset="1" style="stop-color:#E9E9FD"/>
									</linearGradient>
									<path fill="url(#SVGID_9_)" d="M232.93,766.66L498.5,919.99c2.91,1.68,7.3,1.86,9.82,0.41l158.47-91.5
										c2.52-1.45,2.2-3.99-0.71-5.67L400.52,669.9c-2.91-1.68-7.3-1.86-9.82-0.41l-158.47,91.5
										C229.71,762.44,230.03,764.98,232.93,766.66z"/>
									<path fill="#FFFFFF" d="M232.93,765.13L498.5,918.46c2.91,1.68,7.3,1.86,9.82,0.41l158.47-91.5
										c0.82-0.48,1.31-1.07,1.54-1.71c0.4,1.19-0.08,2.4-1.54,3.24l-158.47,91.5c-2.52,1.45-6.91,1.27-9.82-0.41L232.93,766.66
										c-1.96-1.13-2.71-2.64-2.24-3.96C230.98,763.57,231.71,764.43,232.93,765.13z"/>
									<path fill="#2842A2" d="M578.6,886.82v-2.91c0-0.28-0.17-0.4-0.37-0.28l-10.27,5.93c-0.21,0.12-0.37,0.44-0.37,0.72v2.91
										c0,0.28,0.17,0.4,0.37,0.28l10.27-5.93C578.43,887.42,578.6,887.1,578.6,886.82z"/>
									<path fill="#2842A2" d="M563.24,895.69v-2.91c0-0.28-0.17-0.4-0.37-0.28l-10.27,5.93c-0.21,0.12-0.37,0.44-0.37,0.72v2.91
										c0,0.28,0.17,0.4,0.37,0.28l10.27-5.93C563.07,896.29,563.24,895.97,563.24,895.69z"/>
									<path fill="#ADB1F2" d="M625.48,820.33L404.79,692.92c-1.47-0.85-3.28-0.85-4.75,0l-78.59,45.47
										c-1.13,0.65-1.13,2.28,0,2.93l220.58,127.35c1.47,0.85,3.28,0.85,4.75,0l78.69-45.41
										C626.61,822.61,626.61,820.98,625.48,820.33z"/>
									<path fill="#9198DB" d="M625.48,823.27l-0.79,0.46l-219.9-126.96c-1.47-0.85-3.28-0.85-4.75,0l-77.8,45.01l-0.79-0.46
										c-1.13-0.65-1.13-2.28,0-2.93l78.59-45.47c1.47-0.85,3.28-0.85,4.75,0l220.69,127.41
										C626.61,820.98,626.61,822.61,625.48,823.27z"/>
									<g>
										<polygon fill="#24126A" points="394.11,704.43 585.81,815.11 594.33,810.19 402.63,699.51 										"/>
										<polygon fill="#24126A" points="373.21,716.5 553.02,820.31 561.54,815.39 381.73,711.58 										"/>
										<polygon fill="#24126A" points="359.6,724.36 571.3,846.58 579.83,841.66 368.12,719.44 										"/>
										<polygon fill="#24126A" points="345.99,732.21 557.69,854.44 566.22,849.52 354.51,727.29 										"/>
										<polygon fill="#24126A" points="332.38,740.07 544.08,862.3 552.61,857.38 340.9,735.15 										"/>
										<polygon fill="#24126A" points="597.39,821.8 605.91,826.72 614.44,821.8 605.91,816.88 										"/>
										<polygon fill="#24126A" points="567.32,828.57 585.02,838.78 593.54,833.86 575.85,823.65 										"/>
									</g>
									
										<linearGradient id="SVGID_10_" gradientUnits="userSpaceOnUse" x1="488.455" y1="819.8082" x2="600.5626" y2="819.8082" gradientTransform="matrix(-1 0 0 1 935.6085 0)">
										<stop  offset="0" style="stop-color:#C0BFF6"/>
										<stop  offset="0.2938" style="stop-color:#C5C4F7"/>
										<stop  offset="0.6399" style="stop-color:#D3D2F9"/>
										<stop  offset="1" style="stop-color:#E9E9FD"/>
									</linearGradient>
									<path fill="url(#SVGID_10_)" d="M396.3,851.16l-59.51-34.36c-2.33-1.34-2.33-3.52,0-4.86l40.69-23.49
										c2.33-1.34,6.1-1.34,8.42,0l59.51,34.36c2.33,1.34,2.33,3.52,0,4.86l-40.69,23.49
										C402.39,852.51,398.62,852.51,396.3,851.16z"/>
									<path fill="#9198DB" d="M445.41,824.8l-59.51-34.36c-2.33-1.34-6.1-1.34-8.42,0l-40.69,23.49
										c-0.72,0.41-1.19,0.91-1.46,1.44c-0.62-1.17-0.15-2.5,1.46-3.43l40.69-23.49c2.33-1.34,6.1-1.34,8.42,0l59.51,34.36
										c1.61,0.93,2.08,2.25,1.46,3.43C446.6,825.71,446.13,825.21,445.41,824.8z"/>
								</g>
							</g>
							<g opacity="0.11">
								<defs>
									<polygon id="SVGID_7_" opacity="0.11" points="437.39,472.82 696.01,622.13 663.94,811.2 405.49,661.99 									"/>
								</defs>
								<clipPath id="SVGID_11_">
									<use xlink:href="#SVGID_7_"  overflow="visible"/>
								</clipPath>
								<g clip-path="url(#SVGID_11_)">
									
										<linearGradient id="SVGID_12_" gradientUnits="userSpaceOnUse" x1="246.9565" y1="697.8712" x2="684.9249" y2="697.8712" gradientTransform="matrix(-1 0 0 1 935.6085 0)">
										<stop  offset="0" style="stop-color:#C0BFF6"/>
										<stop  offset="0.2938" style="stop-color:#C5C4F7"/>
										<stop  offset="0.6399" style="stop-color:#D3D2F9"/>
										<stop  offset="1" style="stop-color:#E9E9FD"/>
									</linearGradient>
									<path fill="url(#SVGID_12_)" d="M400.26,669.59l265.57,153.33c2.91,1.68,7.3,1.86,9.82,0.41l158.47-91.5
										c2.52-1.45,2.2-3.99-0.71-5.67L567.85,572.83c-2.91-1.68-7.3-1.86-9.82-0.41l-158.47,91.5
										C397.04,665.37,397.35,667.91,400.26,669.59z"/>
									
										<linearGradient id="SVGID_13_" gradientUnits="userSpaceOnUse" x1="218.1309" y1="665.7211" x2="330.2384" y2="665.7211" gradientTransform="matrix(-1 0 0 1 935.6085 0)">
										<stop  offset="0" style="stop-color:#C0BFF6"/>
										<stop  offset="0.2938" style="stop-color:#C5C4F7"/>
										<stop  offset="0.6399" style="stop-color:#D3D2F9"/>
										<stop  offset="1" style="stop-color:#E9E9FD"/>
									</linearGradient>
									<path fill="url(#SVGID_13_)" d="M666.62,697.08l-59.51-34.36c-2.33-1.34-2.33-3.52,0-4.86l40.69-23.49
										c2.33-1.34,6.1-1.34,8.42,0l59.51,34.36c2.33,1.34,2.33,3.52,0,4.86l-40.69,23.49
										C672.72,698.42,668.95,698.42,666.62,697.08z"/>
									<path fill="#9198DB" d="M715.73,670.71l-59.51-34.36c-2.33-1.34-6.1-1.34-8.42,0l-40.69,23.49
										c-0.72,0.41-1.19,0.91-1.46,1.44c-0.62-1.17-0.15-2.5,1.46-3.43l40.69-23.49c2.33-1.34,6.1-1.34,8.42,0l59.51,34.36
										c1.61,0.93,2.08,2.25,1.46,3.43C716.92,671.62,716.45,671.13,715.73,670.71z"/>
									<g>
										<path fill="#ADB1F2" d="M741.89,750.77L521.2,623.35c-1.47-0.85-3.28-0.85-4.75,0l-78.59,45.47
											c-1.13,0.65-1.13,2.28,0,2.93l220.58,127.35c1.47,0.85,3.28,0.85,4.75,0l78.69-45.41
											C743.02,753.05,743.02,751.42,741.89,750.77z"/>
										<path fill="#9198DB" d="M741.89,753.7l-0.79,0.46L521.2,627.2c-1.47-0.85-3.28-0.85-4.75,0l-77.8,45.01l-0.79-0.46
											c-1.13-0.65-1.13-2.28,0-2.93l78.59-45.47c1.47-0.85,3.28-0.85,4.75,0l220.69,127.41
											C743.02,751.42,743.02,753.05,741.89,753.7z"/>
										<g>
											<polygon fill="#24126A" points="458.43,665.72 650.69,776.72 643.07,781.12 450.81,670.12 											"/>
											<polygon fill="#24126A" points="478.69,654.03 661.42,759.53 653.81,763.93 471.07,658.42 											"/>
											<polygon fill="#24126A" points="675.07,767.41 692.14,777.26 684.52,781.66 667.45,771.8 											"/>
											<polygon fill="#24126A" points="659.99,782.1 671.88,788.96 664.26,793.35 652.38,786.49 											"/>
											<polygon fill="#24126A" points="491.38,646.7 704.83,769.93 697.21,774.33 483.76,651.09 											"/>
											<polygon fill="#24126A" points="504.07,639.37 717.52,762.6 709.91,767 496.46,643.77 											"/>
											<polygon fill="#24126A" points="516.77,632.04 730.21,755.28 722.6,759.67 509.15,636.44 											"/>
										</g>
									</g>
								</g>
							</g>
						</g>
					</g>
				</g>
				<g>
					<g>
						<polygon fill="#42E8E0" points="672.1,633.32 677.2,636.58 677.82,632.8 672.72,629.54 						"/>
						<polygon fill="#42E8E0" points="667.92,658.92 673.02,662.18 676.64,640.03 671.54,636.77 						"/>
						<polygon fill="#42E8E0" points="665.92,671.17 671.02,674.43 672.45,665.63 667.35,662.37 						"/>
						<polygon fill="#42E8E0" points="663.85,683.86 668.95,687.12 670.38,678.32 665.28,675.06 						"/>
						<polygon fill="#42E8E0" points="662.49,640.7 667.59,643.96 669.03,635.17 663.93,631.91 						"/>
						<polygon fill="#42E8E0" points="659.75,657.51 664.85,660.77 666.96,647.86 661.86,644.6 						"/>
						<polygon fill="#42E8E0" points="657.22,672.98 662.32,676.24 664.13,665.17 659.03,661.91 						"/>
						<polygon fill="#42E8E0" points="661.77,696.54 666.87,699.81 668.31,691.01 663.21,687.75 						"/>
						<polygon fill="#42E8E0" points="664.49,628.46 669.59,631.72 670.21,627.94 665.11,624.67 						"/>
					</g>
					<polygon fill="#42E8E0" points="655.96,706.43 664.86,712.12 665.46,708.45 656.56,702.75 					"/>
				</g>
			</g>
			<g>
				<g>
					
						<linearGradient id="SVGID_14_" gradientUnits="userSpaceOnUse" x1="537.0685" y1="912.9738" x2="804.3281" y2="912.9738" gradientTransform="matrix(-1 0 0 1 935.6085 0)">
						<stop  offset="0" style="stop-color:#42E8E0"/>
						<stop  offset="0.1507" style="stop-color:#43E3E0"/>
						<stop  offset="0.3285" style="stop-color:#45D5DF"/>
						<stop  offset="0.5199" style="stop-color:#49BDDD"/>
						<stop  offset="0.7209" style="stop-color:#4E9CDB"/>
						<stop  offset="0.9274" style="stop-color:#5472D8"/>
						<stop  offset="1" style="stop-color:#5761D7"/>
					</linearGradient>
					<path fill="url(#SVGID_14_)" d="M341.22,989.81L341.22,989.81L133.85,870.08c-1.63-0.94-2.57-2.4-2.57-4.01
						c0-1.8,1.17-3.51,3.21-4.69l43.1-24.88c3.27-1.89,8.1-2.05,11.01-0.37l207.37,119.73c1.63,0.94,2.57,2.4,2.57,4.01
						c0,1.8-1.17,3.51-3.21,4.68l-43.1,24.88c-1.76,1.02-3.96,1.53-6.09,1.53C344.32,990.97,342.57,990.59,341.22,989.81z
						 M179.62,840.02l-43.1,24.88c-0.99,0.57-1.19,1.08-1.19,1.18c0,0.05,0.13,0.26,0.54,0.5L343.25,986.3v0
						c1.68,0.97,4.93,0.8,6.96-0.37l43.1-24.88c0.98-0.57,1.19-1.07,1.19-1.18c0-0.05-0.13-0.26-0.54-0.5L186.57,839.64
						c-0.73-0.42-1.77-0.63-2.87-0.63C182.29,839.01,180.76,839.36,179.62,840.02z"/>
					<g>
						
							<linearGradient id="SVGID_15_" gradientUnits="userSpaceOnUse" x1="443.752" y1="660.5739" x2="692.4155" y2="660.5739" gradientTransform="matrix(-0.866 -0.5 0 1.1547 783.0846 351.8758)">
							<stop  offset="0" style="stop-color:#5761D7"/>
							<stop  offset="0.1779" style="stop-color:#5C66D9"/>
							<stop  offset="0.3876" style="stop-color:#6A73DF"/>
							<stop  offset="0.6134" style="stop-color:#8289E8"/>
							<stop  offset="0.849" style="stop-color:#A3A7F5"/>
							<stop  offset="1" style="stop-color:#BCBEFF"/>
						</linearGradient>
						<path fill="url(#SVGID_15_)" d="M218.14,767.24c5.45,3.15,10.61,7.58,15.2,12.82c6.37-20.46,25.8-26.81,48.79-13.54
							c19.02,10.98,35.59,32.58,44.36,55.46c2.91,0.09,6.14,1.05,9.57,3.03c12.41,7.17,22.47,24.59,22.47,38.92
							c0,0.31-0.03,0.59-0.04,0.89c3.54,0.24,7.45,1.5,11.57,3.87c15.87,9.16,28.74,31.45,28.74,49.78s-12.87,25.76-28.74,16.59
							l-151.91-87.71c-19.16-11.06-34.69-37.96-34.69-60.09S198.98,756.17,218.14,767.24z"/>
						
							<radialGradient id="SVGID_16_" cx="587.4214" cy="828.1258" r="102.7223" fx="490.55" fy="793.9527" gradientTransform="matrix(-1 0 0 1 935.6085 0)" gradientUnits="userSpaceOnUse">
							<stop  offset="0" style="stop-color:#2B237C"/>
							<stop  offset="1" style="stop-color:#180D5B"/>
						</radialGradient>
						<path fill="url(#SVGID_16_)" d="M218.14,767.24c3.16,1.82,6.22,4.09,9.13,6.69l16.99-9.81l0,0c9.33-6.56,22.84-6.28,37.87,2.4
							c19.02,10.98,35.59,32.58,44.36,55.46c2.91,0.09,6.14,1.05,9.57,3.03c12.41,7.17,22.47,24.59,22.47,38.92
							c0,0.31-0.03,0.59-0.04,0.89c3.54,0.24,7.45,1.5,11.57,3.87c15.87,9.16,28.74,31.45,28.74,49.78c0,9.08-3.17,15.48-8.29,18.51
							l0.01,0.01l-0.13,0.08c-0.01,0-0.02,0.01-0.03,0.02l-41.61,24.15l-9.09-43.72l-121.52-70.16
							c-19.16-11.06-34.69-37.96-34.69-60.09C183.45,765.14,198.98,756.17,218.14,767.24z"/>
						
							<linearGradient id="SVGID_17_" gradientUnits="userSpaceOnUse" x1="536.8131" y1="860.3915" x2="784.3385" y2="860.3915" gradientTransform="matrix(-1 0 0 1 935.6085 0)">
							<stop  offset="0" style="stop-color:#5761D7"/>
							<stop  offset="0.1779" style="stop-color:#5C66D9"/>
							<stop  offset="0.3876" style="stop-color:#6A73DF"/>
							<stop  offset="0.6134" style="stop-color:#8289E8"/>
							<stop  offset="0.849" style="stop-color:#A3A7F5"/>
							<stop  offset="1" style="stop-color:#BCBEFF"/>
						</linearGradient>
						<path fill="url(#SVGID_17_)" d="M151.27,789.41l42.16-24.49l0,0.01c6.29-3.75,15.04-3.28,24.72,2.31
							c3.16,1.82,6.22,4.09,9.13,6.69l16.99-9.81l0,0c9.33-6.56,22.84-6.28,37.87,2.4c19.02,10.98,35.59,32.58,44.36,55.46
							c2.91,0.09,6.14,1.05,9.57,3.03c12.41,7.17,22.47,24.59,22.47,38.92c0,0.31-0.03,0.59-0.04,0.89
							c3.54,0.24,7.45,1.5,11.57,3.87c15.87,9.16,28.74,31.45,28.74,49.78c0,9.08-3.17,15.48-8.29,18.51l0.01,0.01l-0.13,0.08
							c-0.01,0-0.02,0.01-0.03,0.02l-41.61,24.15l-9.09-43.72l-121.52-70.16c-15.53-8.97-28.67-28.34-33.1-47.14L151.27,789.41z"/>
						
							<linearGradient id="SVGID_18_" gradientUnits="userSpaceOnUse" x1="491.9533" y1="702.4283" x2="740.6167" y2="702.4283" gradientTransform="matrix(-0.866 -0.5 0 1.1547 783.0846 351.8758)">
							<stop  offset="0" style="stop-color:#C0BFF6"/>
							<stop  offset="0.2938" style="stop-color:#C5C4F7"/>
							<stop  offset="0.6399" style="stop-color:#D3D2F9"/>
							<stop  offset="1" style="stop-color:#E9E9FD"/>
						</linearGradient>
						<path fill="url(#SVGID_18_)" d="M176.4,791.46c5.45,3.15,10.61,7.58,15.2,12.82c6.37-20.46,25.8-26.81,48.79-13.54
							c19.02,10.98,35.59,32.58,44.36,55.46c2.91,0.09,6.14,1.05,9.57,3.03c12.41,7.16,22.47,24.59,22.47,38.92
							c0,0.31-0.03,0.59-0.04,0.89c3.54,0.24,7.45,1.5,11.57,3.87c15.87,9.16,28.74,31.45,28.74,49.78
							c0,18.33-12.87,25.76-28.74,16.59L176.4,871.58c-19.16-11.06-34.69-37.96-34.69-60.09
							C141.71,789.37,157.24,780.4,176.4,791.46z"/>
						<g>
							<path fill="#FFFFFF" d="M190.21,805.12c-4.59-5.24-9.75-9.67-15.2-12.82c-9.37-5.41-17.86-6.02-24.1-2.65
								c6.34-4.27,15.41-4,25.5,1.82c5.14,2.97,10,7.08,14.39,11.93C190.59,803.96,190.39,804.53,190.21,805.12z"/>
							<path fill="#FFFFFF" d="M355.66,943.53c0-18.33-12.87-40.61-28.74-49.78c-4.12-2.38-8.03-3.63-11.57-3.87
								c0.01-0.3,0.04-0.58,0.04-0.89c0-14.33-10.06-31.75-22.47-38.92c-3.43-1.98-6.66-2.93-9.57-3.03
								c-8.77-22.88-25.34-44.48-44.36-55.46c-13.9-8.03-26.5-8.87-35.7-3.76c9.3-6.01,22.47-5.52,37.09,2.92
								c19.02,10.98,35.59,32.58,44.36,55.46c2.91,0.09,6.14,1.05,9.57,3.03c12.41,7.17,22.47,24.59,22.47,38.92
								c0,0.31-0.03,0.59-0.04,0.89c3.54,0.24,7.45,1.5,11.57,3.87c15.87,9.16,28.74,31.45,28.74,49.78c0,9.41-3.4,15.94-8.85,18.83
								C352.84,958.31,355.66,952.11,355.66,943.53z"/>
						</g>
					</g>
				</g>
				
					<linearGradient id="SVGID_19_" gradientUnits="userSpaceOnUse" x1="458.7029" y1="1006.0637" x2="564.6595" y2="1006.0637" gradientTransform="matrix(-1 0 0 1 935.6085 0)">
					<stop  offset="0" style="stop-color:#5761D7"/>
					<stop  offset="0.0726" style="stop-color:#5472D8"/>
					<stop  offset="0.2791" style="stop-color:#4E9CDB"/>
					<stop  offset="0.4801" style="stop-color:#49BDDD"/>
					<stop  offset="0.6715" style="stop-color:#45D5DF"/>
					<stop  offset="0.8493" style="stop-color:#43E3E0"/>
					<stop  offset="1" style="stop-color:#42E8E0"/>
				</linearGradient>
				<polygon fill="url(#SVGID_19_)" points="473.2,1038.58 476.91,1036.08 373.04,973.55 370.95,977.02 				"/>
			</g>
			
				<linearGradient id="SVGID_20_" gradientUnits="userSpaceOnUse" x1="217.8319" y1="969.9661" x2="353.2128" y2="969.9661" gradientTransform="matrix(-1 0 0 1 935.6085 0)">
				<stop  offset="0" style="stop-color:#42E8E0"/>
				<stop  offset="0.1507" style="stop-color:#43E3E0"/>
				<stop  offset="0.3285" style="stop-color:#45D5DF"/>
				<stop  offset="0.5199" style="stop-color:#49BDDD"/>
				<stop  offset="0.7209" style="stop-color:#4E9CDB"/>
				<stop  offset="0.9274" style="stop-color:#5472D8"/>
				<stop  offset="1" style="stop-color:#5761D7"/>
			</linearGradient>
			<path fill="url(#SVGID_20_)" d="M624.08,1035.08c-0.73,0-1.44-0.39-1.81-1.07c-0.54-1-0.17-2.24,0.83-2.79l88.43-47.98
				l-128.12-74.55c-0.98-0.57-1.31-1.83-0.74-2.81c0.57-0.98,1.83-1.31,2.81-0.74l131.27,76.39c0.64,0.37,1.03,1.06,1.02,1.81
				c-0.01,0.74-0.42,1.42-1.07,1.78l-91.64,49.73C624.75,1035,624.41,1035.08,624.08,1035.08z"/>
			<g>
				<g>
					<g>
						<linearGradient id="SVGID_21_" gradientUnits="userSpaceOnUse" x1="400.9966" y1="1078.4249" x2="704.7727" y2="1078.4249">
							<stop  offset="0" style="stop-color:#42E8E0"/>
							<stop  offset="0.1507" style="stop-color:#43E3E0"/>
							<stop  offset="0.3285" style="stop-color:#45D5DF"/>
							<stop  offset="0.5199" style="stop-color:#49BDDD"/>
							<stop  offset="0.7209" style="stop-color:#4E9CDB"/>
							<stop  offset="0.9274" style="stop-color:#5472D8"/>
							<stop  offset="1" style="stop-color:#5761D7"/>
						</linearGradient>
						<path fill="url(#SVGID_21_)" d="M552.88,1166.99c-0.35,0-0.71-0.09-1.03-0.27l-149.83-86.51c-0.64-0.37-1.03-1.05-1.03-1.78
							c0-0.73,0.39-1.41,1.03-1.78l149.84-86.51c0.64-0.37,1.42-0.37,2.05,0l149.83,86.51c0.64,0.37,1.03,1.05,1.03,1.78
							c0,0.73-0.39,1.41-1.03,1.78l-149.84,86.51C553.59,1166.9,553.24,1166.99,552.88,1166.99z M407.16,1078.43l145.73,84.13
							l145.73-84.14l-145.73-84.13L407.16,1078.43z"/>
						
							<linearGradient id="SVGID_22_" gradientUnits="userSpaceOnUse" x1="354.7864" y1="1123.1334" x2="410.6607" y2="1033.7159" gradientTransform="matrix(-1 0 0 1 935.6085 0)">
							<stop  offset="0" style="stop-color:#42E8E0"/>
							<stop  offset="0.1507" style="stop-color:#43E3E0"/>
							<stop  offset="0.3285" style="stop-color:#45D5DF"/>
							<stop  offset="0.5199" style="stop-color:#49BDDD"/>
							<stop  offset="0.7209" style="stop-color:#4E9CDB"/>
							<stop  offset="0.9274" style="stop-color:#5472D8"/>
							<stop  offset="1" style="stop-color:#5761D7"/>
						</linearGradient>
						<polygon fill="url(#SVGID_22_)" points="552.88,1135.86 652.37,1078.42 552.89,1020.99 453.4,1078.43 						"/>
					</g>
					<g>
						<path fill="#160A5B" d="M527.48,1046.11c0,0-1.71,1.69-3.48,3.69c-1.78,2-6.7,4.72-8.76,5.94
							c-2.07,1.21-11.58,8.06-13.7,14.97c-2.12,6.92,4.52,8.01,11.38,6.96c6.85-1.04,13.38-7.18,15.3-9.4
							c1.91-2.23,8.5-7.22,16.98-11.35c8.48-4.13,3.56-10.08,3.56-10.08L527.48,1046.11z"/>
						<path fill="#160A5B" d="M589.13,1068.35c0,0,1.3,3.17,1.59,7.21c0.29,4.04,0.64,12.79,0.78,15.35
							c0.15,2.56,0.07,8.81-4.57,14.69c-4.65,5.87-7.03,8.18-12.95,5.68c-5.92-2.5-5.53-12.53-4.35-17.66
							c1.19-5.13,2.45-16.65,2.38-17.87c-0.08-1.21,0.39-1.98,0.39-1.98L589.13,1068.35z"/>
						<path fill="#24126A" d="M509.8,927.25c0,0,0.12,46.03,10.23,70.72c0,0,7.14,21.7,7.52,47.3c0,0-1.88,4.36,0.54,8
							c2.43,3.64,18.08,7.31,20.98-4.39c2.89-11.7,2.44-33.73-0.19-42.98c-2.63-9.25,1.87-34.45,1.87-34.45s4.23,2.86,9.42,21.17
							c5.19,18.31,9.16,25.35,10.98,30.42c1.81,5.07,2.83,35.91,1.23,50.92c0,0,12.7,2.13,16.54-3.87c3.84-6,5.85-37.49,5.17-47.56
							c-0.68-10.07-4.09-42.37-3.26-52.31c0.82-9.95,3.1-17.98,1.07-27.99c-2.03-10-68.74-33.78-68.74-33.78L509.8,927.25z"/>
						<path fill="#160A5B" d="M590.83,970.22c0.82-9.95,3.1-17.98,1.07-27.99c-0.76-3.76-10.67-9.47-22.73-15.13
							c-20.54-2.39-46.59-5.22-48.39-4.99c-1.63,0.21-5.93,1.72-9.49,3.04l-1.49,2.1c0,0,0.01,2.8,0.17,7.37
							c4.76,1.56,14.04,0.3,14.04,0.3c1.22,3.26,8.96,14.93,18.81,20.13c9.85,5.2,39.08,4.22,40.71,6.15
							c1.63,1.92,1.33,27.12,1.06,30.31c-0.27,3.2,2.17,23.43,4.44,41.32c2.24,17.6-2.36,38.82-2.51,39.5
							c0.96-0.58,1.8-1.31,2.4-2.25c3.84-6,5.85-37.49,5.17-47.56C593.41,1012.46,590,980.16,590.83,970.22z"/>
						<path fill="#453C9E" d="M536.05,777.35c0,0-15,3.03-20.05,4.09c-0.84,0.17-1.52,0.74-1.86,1.53
							c-1.54,3.63-5.46,14.94-3.13,31.65c2.86,20.54,1.45,34.28,1.45,34.28l-7.79,35.75c0,0-9.53,33.99-8.8,34.95
							c0.73,0.95,19.59,16.07,25.65,14.15c6.06-1.91,4.17-5.36,4.17-5.36s4.25,24.91,25.81,25.21s39.16,0.8,43.03-7.82
							c3.87-8.62,0.12-45.36-3.31-59.95c-3.44-14.59-11.75-43.72-11.75-43.72l32.43-34.15l-26.46-21.27c0,0-6.15-12.13-8.76-13.72
							c-2.61-1.59-4.03-0.33-4.03-0.33L536.05,777.35z"/>
						<g>
							
								<linearGradient id="SVGID_23_" gradientUnits="userSpaceOnUse" x1="910.2816" y1="952.5064" x2="938.9892" y2="952.5064" gradientTransform="matrix(0.9966 0.0826 -0.0826 0.9966 -332.5335 -98.434)">
								<stop  offset="0" style="stop-color:#5761D7"/>
								<stop  offset="0.0726" style="stop-color:#5472D8"/>
								<stop  offset="0.2791" style="stop-color:#4E9CDB"/>
								<stop  offset="0.4801" style="stop-color:#49BDDD"/>
								<stop  offset="0.6715" style="stop-color:#45D5DF"/>
								<stop  offset="0.8493" style="stop-color:#43E3E0"/>
								<stop  offset="1" style="stop-color:#42E8E0"/>
							</linearGradient>
							<path fill="url(#SVGID_23_)" d="M522.08,925.86c-0.01,1.24-0.78,3.08-4.69,4.31c-4.22,1.33-14.32-5.16-20.92-10.01
								c3.29,2.87,19.51,15.34,25.05,13.59c1.2-0.38,2.08-0.82,2.74-1.28C523.08,929.68,522.41,927.28,522.08,925.86z"/>
							
								<linearGradient id="SVGID_24_" gradientUnits="userSpaceOnUse" x1="950.8655" y1="961.8194" x2="1010.9271" y2="961.8194" gradientTransform="matrix(0.9966 0.0826 -0.0826 0.9966 -332.5335 -98.434)">
								<stop  offset="0" style="stop-color:#5761D7"/>
								<stop  offset="0.0726" style="stop-color:#5472D8"/>
								<stop  offset="0.2791" style="stop-color:#4E9CDB"/>
								<stop  offset="0.4801" style="stop-color:#49BDDD"/>
								<stop  offset="0.6715" style="stop-color:#45D5DF"/>
								<stop  offset="0.8493" style="stop-color:#43E3E0"/>
								<stop  offset="1" style="stop-color:#42E8E0"/>
							</linearGradient>
							<path fill="url(#SVGID_24_)" d="M594.44,942.87c-4.09,9.1-22.67,8.56-45.41,8.25c-5.79-0.08-10.39-1.85-14.04-4.43
								c3.84,3.85,9.17,6.8,16.5,6.9c21.56,0.3,39.16,0.8,43.03-7.82c1.27-2.83,1.72-8.7,1.63-15.81
								C596.06,935.75,595.55,940.41,594.44,942.87z"/>
						</g>
						<path fill="#F0F6FF" d="M576.09,772.66c0,0,5.34,6.8-2.81,15.61c-5.02,5.42-13.71,17.16-21.17,29.38
							c-4.66,7.64-8.89,11.67-11.4,18.26c0,0-0.13-7.92-0.14-20.14c-0.01-11.53,0.13-23.51,0.72-26.52
							C542.5,783.08,570.07,769.49,576.09,772.66z"/>
						<path fill="#FCD1C5" d="M554.98,792.2c0,0-2.87,1.68-3.84,1.51c-0.97-0.17-4.02-3.28-4.02-3.28s-7.82-0.34-8.59-3.71
							c-0.77-3.37-1.25-6.77-2-8.53c-0.75-1.76-3.92-10.21-3.86-13.6c0.06-3.39,0.34-9.45-1.05-12.7
							c-1.39-3.24-2.56-35.4,28.42-33.72c30.98,1.67,20.55,33.63,20.55,33.63s2.24,1.02,0.77,5.13c-1.47,4.11-1.79,4.53-2.54,6.57
							s-1.13,3.35-3.14,4.97l-0.61,3.81c0,0,1.33,5.87-2.67,11.44C568.41,789.29,554.98,792.2,554.98,792.2z"/>
						<path fill="#24126A" d="M515.13,781.79c0,0-3.32,0.41-14.71,27.13c-6.36,14.91-15.98,30.27-18.22,41.41
							c-2.24,11.14-1.44,23.13,0.75,24.03c2.11,0.86,40.29,16.24,52.24,21.09c0.66,0.27,1.4-0.13,1.54-0.83l3.79-18.53l-23.69-9.83
							c0,0-4.42-5.68-8.65-7.87c0,0,5.01-8.72,4.77-11.14c-0.25-2.42,1.11-27.36-1.44-37.59
							C508.95,799.43,515.13,781.79,515.13,781.79z"/>
						<path fill="#FCD1C5" d="M527.37,853.45c0,0-3.24-2.3-4.04-2.63c-0.81-0.34-5.17-1.95-6.01-2.35
							c-0.62-0.29-3.19-0.14-4.48-0.05c-0.47,0.04-0.88,0.29-1.11,0.7c-1.07,1.86-4.04,7.29-3.77,9.39c0,0,7.84,5.23,8.67,7.49
							l1.26,0.3C517.89,866.31,523.51,855,527.37,853.45z"/>
						<path fill="#24126A" d="M591.21,885.84c-0.83-3.51-1.94-7.87-3.15-12.45l-48.95,19.56c0,0,14.05,18.19,39.49,17.67
							c6.96-0.14,12.09-2.52,15.86-4.58C593.54,898.08,592.36,890.72,591.21,885.84z"/>
						<path fill="#24126A" d="M611.88,807.97c0,0-12.82,1.44-23.54,17.54c-10.72,16.1-18.72,34.84-18.72,34.84l-0.41,2.12
							c-1.07,5.54-7.07,8.58-12.17,6.15c-10.78-5.14-26.73-12.89-29.69-15.18c0,0-9.78,5.09-12.73,17.63
							c-2.35,10-1.82,10.04-1.82,10.04s42.51,21.14,59.12,21.36c16.61,0.22,39.04-53.87,41.64-65.1
							C616.19,826.15,619.12,811.34,611.88,807.97z"/>
						<path fill="#4846A5" d="M611.88,807.97c0,0-12.82,1.44-23.54,17.54c-10.72,16.1-18.72,34.84-18.72,34.84l-0.41,2.12
							c-1.07,5.54-7.07,8.58-12.17,6.15c-10.78-5.14-26.73-12.89-29.69-15.18c0,0-9.78,5.09-12.73,17.63
							c-2.35,10-1.82,10.04-1.82,10.04s42.51,21.14,59.12,21.36c16.61,0.22,39.04-53.87,41.64-65.1
							C616.19,826.15,619.12,811.34,611.88,807.97z"/>
						<path fill="#453C9E" d="M563.16,871.32c0,0,5.3,5.21,7.73,2.49c2.43-2.72,1.74-3.04,1.74-3.04s4.88,0.08,5.55-2.97
							c0.67-3.04,3.03-1.37,3.26-4.77c0.22-3.4-3.88-2.81-3.88-2.81L563.16,871.32z"/>
						<path fill="#FCD1C5" d="M556.68,868.44c0,0,1.53-1.35,3.49-2.93c1.96-1.58,5.24-8.24,5.78-8.82c0.54-0.58,7.15-5.4,10.28-5.41
							c3.13-0.01,0.72,3.44-0.01,3.91c-0.73,0.48-3.83,1.92-3.83,1.92s-3.21,2.56-3.57,2.94c-0.37,0.38,8.75-0.41,10.17,0.51
							c1.42,0.92,1.03,3.24-0.01,3.84c-1.03,0.61-1.81,0.57-1.81,0.57s0.96,2.76-1.8,3.96c-2.76,1.2-3.37,0.48-3.37,0.48
							s-0.35,4.72-4.83,3.67L556.68,868.44z"/>
						<path fill="#AA8383" d="M531.34,735.47c0,0-4.37,12.78,6.38,9.38c10.74-3.4,20.53-9.3,23.82-6.88
							c2.5,1.84,2.25,7.29,1.99,9.79c-0.09,0.85,0.11,1.7,0.58,2.42l3.04,4.67c0.34,0.53,0.54,1.14,0.57,1.76l0.15,3.2
							c0.04,0.8,0.67,1.46,1.47,1.52l0.73,0.06c0.81,0.07,1.54-0.48,1.7-1.28l0.94-4.67c0,0,2.66-6.25,7.9-3.64
							c0,0,3.66-4.67,2.74-14.88c-0.92-10.21-5.22-20.91-25.16-23.1C538.23,711.63,531.34,735.47,531.34,735.47z"/>
						<path fill="#C4CCD6" d="M560.2,803.68l-2.93-2.39c0,0-2.82,2.23-3.96,4.64c-1.14,2.41-0.25,10.18-0.25,10.18l-0.95,1.54
							l-1.07-2.08l-0.72-9.18c0,0,1.19-6.74,1.29-6.91c0.1-0.17,5.75,0.75,5.75,0.75S559.28,801.77,560.2,803.68z"/>
						<path fill="#C4CCD6" d="M546.05,794.21c0,0-3.2,0.13-4.67,1.29c0,0,3.35,0.25,3.88,0.32
							C545.79,795.9,546.05,794.21,546.05,794.21z"/>
						<path fill="#24126A" d="M552.12,795.08l5.24,5.14c0,0-4.76,2.05-6.18,6.22c0,0-5.86,0.94-6.34-1.18
							c-0.48-2.13,0.2-7.44-0.44-9.81C543.76,793.08,552.12,795.08,552.12,795.08z"/>
						<path fill="#24126A" d="M545.05,805.15c0,0-1.11,4.36-2.24,6.15c-1.13,1.78-2.3,3.79-2.3,3.79l-0.51,25.73
							c0,0,9.95-19.27,12.1-23.16c0,0-0.08-9.4-0.93-11.2C550.33,804.65,545.05,805.15,545.05,805.15z"/>
						<path fill="#E2B1A6" d="M571.4,767.77c-6.66,17.78-24.28,22.67-24.28,22.67s3.05,3.11,4.02,3.28
							c0.97,0.17,3.84-1.51,3.84-1.51s13.43-2.91,17.42-8.48c3.99-5.57,2.67-11.44,2.67-11.44l0.61-3.81
							C572.88,769.32,571.4,767.77,571.4,767.77z"/>
						<path fill="#24126A" d="M585.1,789.11c0,0-2.66,8.4-2.99,8.71c-0.32,0.31-6.16-0.51-6.16-0.51l2.71,5.45
							c0,0-30.22,30.84-36.74,47.66c0,0,14.46-21.18,39.61-46.27l-3.34-5.34l5.99,1.32L585.1,789.11z"/>
						<path fill="#24126A" d="M536.94,780.44l-1.61,1.74l1.79,1.76l-5.56,4.78c0,0-2.52,34.49,3.56,57.52c0,0-8.5-21.2-5.53-58.51
							l5.99-3.85l-1.88-1.94L536.94,780.44z"/>
						<path fill="#160A5B" d="M550.75,971.45c0,0,0.07,0.05,0.2,0.17l-7.42-8.31c3.4,5.05-1.22,27.68-1.77,32.87
							c-0.55,5.19,3.68,16.05,5.04,28.68c1.37,12.61-2.52,30.48-2.53,30.53c2.21-1.21,4-3.27,4.8-6.51
							c2.89-11.7,2.44-33.73-0.19-42.98C546.25,996.65,550.75,971.45,550.75,971.45z"/>
						
							<linearGradient id="SVGID_25_" gradientUnits="userSpaceOnUse" x1="923.2698" y1="885.6685" x2="1020.957" y2="885.6685" gradientTransform="matrix(0.9966 0.0826 -0.0826 0.9966 -332.5335 -98.434)">
							<stop  offset="0" style="stop-color:#5761D7"/>
							<stop  offset="0.0726" style="stop-color:#5472D8"/>
							<stop  offset="0.2791" style="stop-color:#4E9CDB"/>
							<stop  offset="0.4801" style="stop-color:#49BDDD"/>
							<stop  offset="0.6715" style="stop-color:#45D5DF"/>
							<stop  offset="0.8493" style="stop-color:#43E3E0"/>
							<stop  offset="1" style="stop-color:#42E8E0"/>
						</linearGradient>
						<path fill="url(#SVGID_25_)" d="M571.94,902.48c16.61,0.22,39.04-53.87,41.64-65.1c0.43-1.87,0.87-3.85,1.28-5.85
							c-0.06,0.16-4.66,11.85-9.07,22.2c-4.44,10.42-27.43,41.78-38.82,43.58c-10.28,1.62-46.64-16.47-53.69-20.04
							c-0.74,3.82-0.47,3.86-0.47,3.86S555.33,902.26,571.94,902.48z"/>
						<path fill="#936D6D" d="M570.05,761.4c0.81,0.07,1.54-0.48,1.7-1.28l0.94-4.67c0,0,2.66-6.25,7.9-3.64
							c0,0,3.45-4.44,2.79-14.08c-6.11,8.7-19.29,12.46-19.29,12.46l3.04,4.67c0.34,0.53,0.54,1.14,0.57,1.76l0.15,3.2
							c0.04,0.8,0.67,1.46,1.47,1.52L570.05,761.4z"/>
					</g>
				</g>
			</g>
		</g>
		<path fill="#24126A" d="M428.12,527.77l96.27,55.58c4.48,2.58,8.11,9.52,8.11,15.49v91.81c0,5.97-3.63,8.71-8.11,6.13
			l-113.7-65.64L428.12,527.77z"/>
		<g>
			
				<linearGradient id="SVGID_26_" gradientUnits="userSpaceOnUse" x1="436.4552" y1="633.3239" x2="598.7458" y2="497.1458" gradientTransform="matrix(-1 0 0 1 935.6085 0)">
				<stop  offset="0" style="stop-color:#5761D7"/>
				<stop  offset="0.1779" style="stop-color:#5C66D9"/>
				<stop  offset="0.3876" style="stop-color:#6A73DF"/>
				<stop  offset="0.6134" style="stop-color:#8289E8"/>
				<stop  offset="0.849" style="stop-color:#A3A7F5"/>
				<stop  offset="1" style="stop-color:#BCBEFF"/>
			</linearGradient>
			<path fill="url(#SVGID_26_)" d="M338.74,475.42l4.69-3.35v0c1.47-1.12,3.5-1.16,5.75,0.13l163.8,94.57
				c4.48,2.58,8.11,9.52,8.11,15.49v91.81c0,3.12-1,5.35-2.59,6.41l0.02,0.01l-4.87,3.48l-0.27-3.56c-0.13-0.07-0.26-0.13-0.4-0.2
				l-163.8-94.57c-4.48-2.58-8.11-9.52-8.11-15.49v-91.81c0-0.88,0.09-1.68,0.24-2.42L338.74,475.42z"/>
			
				<linearGradient id="SVGID_27_" gradientUnits="userSpaceOnUse" x1="433.1756" y1="592.612" x2="450.9021" y2="577.7377" gradientTransform="matrix(-1 0 0 1 935.6085 0)">
				<stop  offset="0" style="stop-color:#C0BFF6"/>
				<stop  offset="0.2938" style="stop-color:#C5C4F7"/>
				<stop  offset="0.6399" style="stop-color:#D3D2F9"/>
				<stop  offset="1" style="stop-color:#E9E9FD"/>
			</linearGradient>
			<path fill="url(#SVGID_27_)" d="M520.66,578.59l-43.24,24.96l-10.89-6.29l49.1-28.35C518,571.38,519.86,574.96,520.66,578.59z"/>
			
				<linearGradient id="SVGID_28_" gradientUnits="userSpaceOnUse" x1="580.4272" y1="946.8619" x2="580.4272" y2="848.629" gradientTransform="matrix(-0.866 -0.5 0 1.1547 928.8361 -166.7211)">
				<stop  offset="0" style="stop-color:#C0BFF6"/>
				<stop  offset="0.2938" style="stop-color:#C5C4F7"/>
				<stop  offset="0.6399" style="stop-color:#D3D2F9"/>
				<stop  offset="1" style="stop-color:#E9E9FD"/>
			</linearGradient>
			<path fill="url(#SVGID_28_)" d="M344.28,589.12l163.8,94.57c4.48,2.58,8.11-0.16,8.11-6.13v-91.81c0-5.97-3.63-12.9-8.11-15.49
				l-163.8-94.57c-4.48-2.58-8.11,0.16-8.11,6.13v91.81C336.18,579.6,339.81,586.54,344.28,589.12z"/>
			<path fill="#FFFFFF" d="M515.31,678.03v-91.81c0-5.97-3.63-12.9-8.11-15.49l-163.8-94.57c-1.76-1.02-3.39-1.2-4.72-0.69
				c1.46-1.02,3.43-1.04,5.61,0.22l163.8,94.57c4.48,2.58,8.11,9.52,8.11,15.49v91.81c0,3.62-1.34,6.04-3.38,6.82
				C514.35,683.3,515.31,681.1,515.31,678.03z"/>
			<path fill="#5761D7" d="M359.44,531.31l133.69,77.11c1.03,0.6,1.91,0.92,2.52-0.01c0.09-0.14,0.04-0.36,0.04-0.55v-20.28
				c0-1.58-0.96-3.4-2.14-4.09L358.82,505.7c-0.11-0.06-0.2-0.17-0.31-0.15c-1.01,0.17-1.05,1.1-1.05,2.53l-0.33,19.45
				C357.14,529.11,358.26,530.63,359.44,531.31z"/>
			<path fill="#5761D7" d="M359.16,575.4l133.91,77.18c1.03,0.6,2.37,1.22,2.57,0.04c0.03-0.17,0.04-0.36,0.04-0.56v-20.28
				c0-1.57-0.96-3.4-2.14-4.09l-134.72-77.78c-0.11-0.06-0.21-0.11-0.31-0.15c-1.03-0.4-1.31,0.94-1.31,2.37l-0.07,19.21
				C357.14,572.92,357.98,574.72,359.16,575.4z"/>
			<path fill="#FFFFFF" d="M358.51,505.56c-0.03,0.17-0.04,0.35-0.04,0.55v20.28c0,1.58,0.96,3.4,2.14,4.09l134.72,77.78
				c0.11,0.06,0.21,0.1,0.31,0.14c-0.2,1.18-1.06,1.66-2.1,1.07l-134.72-77.78c-1.18-0.68-2.14-2.51-2.14-4.09v-20.28
				C356.68,505.89,357.48,505.17,358.51,505.56z"/>
			<path fill="#FFFFFF" d="M358.51,549.78c-0.03,0.17-0.04,0.35-0.04,0.55v20.28c0,1.58,0.96,3.4,2.14,4.09l134.72,77.78
				c0.11,0.06,0.21,0.1,0.31,0.14c-0.2,1.18-1.06,1.66-2.1,1.07L358.82,575.9c-1.18-0.68-2.14-2.51-2.14-4.09v-20.28
				C356.68,550.1,357.48,549.38,358.51,549.78z"/>
			<g>
				<g>
					<path fill="#FFFFFF" d="M457.18,578.2l-1.65,3.12l-3.13-3.93l2.38-2.45l-3.56-3.63l1.17-3.01l3.22,3.95l-0.43-4.71l3.94,2.28
						l-0.41,4.2l3.22-0.19l1.19,4.33l-3.51-0.46l2.36,5.23l-3.08,0.33L457.18,578.2z"/>
				</g>
				<g>
					<path fill="#FFFFFF" d="M441.69,569.26l-1.65,3.12l-3.13-3.93l2.38-2.45l-3.56-3.63l1.17-3.01l3.22,3.95l-0.43-4.71l3.94,2.27
						l-0.41,4.2l3.22-0.19l1.19,4.33l-3.51-0.46l2.36,5.23l-3.08,0.33L441.69,569.26z"/>
				</g>
				<g>
					<path fill="#FFFFFF" d="M426.21,560.32l-1.65,3.12l-3.13-3.93l2.38-2.45l-3.56-3.63l1.17-3.01l3.22,3.95l-0.43-4.71l3.94,2.27
						l-0.41,4.2l3.22-0.19l1.19,4.33l-3.51-0.46l2.36,5.23l-3.08,0.33L426.21,560.32z"/>
				</g>
				<g>
					<path fill="#FFFFFF" d="M410.72,551.38l-1.65,3.12l-3.13-3.93l2.38-2.45l-3.56-3.63l1.17-3.01l3.22,3.95l-0.43-4.71l3.94,2.28
						l-0.41,4.2l3.22-0.19l1.19,4.33l-3.51-0.46l2.36,5.23l-3.08,0.33L410.72,551.38z"/>
				</g>
				<g>
					<path fill="#FFFFFF" d="M395.24,542.44l-1.65,3.12l-3.13-3.93l2.38-2.45l-3.56-3.63l1.17-3.01l3.22,3.95l-0.43-4.71l3.94,2.27
						l-0.41,4.2l3.22-0.19l1.19,4.33l-3.51-0.46l2.36,5.23l-3.08,0.33L395.24,542.44z"/>
				</g>
			</g>
			<g>
				<g>
					<path fill="#FFFFFF" d="M457.18,622.41l-1.65,3.12l-3.13-3.93l2.38-2.45l-3.56-3.63l1.17-3.01l3.22,3.95l-0.43-4.71l3.94,2.27
						l-0.41,4.2l3.22-0.19l1.19,4.33l-3.51-0.46l2.36,5.23l-3.08,0.33L457.18,622.41z"/>
				</g>
				<g>
					<path fill="#FFFFFF" d="M441.69,613.47l-1.65,3.12l-3.13-3.93l2.38-2.45l-3.56-3.63l1.17-3.01l3.22,3.95l-0.43-4.71l3.94,2.27
						l-0.41,4.2l3.22-0.19l1.19,4.33l-3.51-0.46l2.36,5.23l-3.08,0.33L441.69,613.47z"/>
				</g>
				<g>
					<path fill="#FFFFFF" d="M426.21,604.53l-1.65,3.12l-3.13-3.93l2.38-2.45l-3.56-3.63l1.17-3.01l3.22,3.95l-0.43-4.71l3.94,2.27
						l-0.41,4.2l3.22-0.19l1.19,4.33l-3.51-0.46l2.36,5.23l-3.08,0.33L426.21,604.53z"/>
				</g>
				<g>
					<path fill="#FFFFFF" d="M410.72,595.59l-1.65,3.12l-3.13-3.93l2.38-2.45l-3.56-3.63l1.17-3.01l3.22,3.95l-0.43-4.71l3.94,2.27
						l-0.41,4.2l3.22-0.19l1.19,4.33l-3.51-0.46l2.36,5.23l-3.08,0.33L410.72,595.59z"/>
				</g>
				<g>
					<path fill="#FFFFFF" d="M395.24,586.65l-1.65,3.12l-3.13-3.93l2.38-2.45l-3.56-3.63l1.17-3.01l3.22,3.95l-0.43-4.71l3.94,2.27
						l-0.41,4.2l3.22-0.19l1.19,4.33l-3.51-0.46l2.36,5.23l-3.08,0.33L395.24,586.65z"/>
				</g>
			</g>
		</g>
	</g>
	<polygon opacity="0.3" fill="#4846A5" points="389.52,1037.82 369.09,1049.61 348.66,1037.82 369.09,1026.02 	"/>
	<polygon opacity="0.1" fill="#4846A5" points="457.6,946.11 437.17,957.91 416.74,946.11 437.17,934.32 	"/>
	<polygon opacity="0.1" fill="#4846A5" points="366.84,633 346.41,644.8 325.98,633 346.41,621.21 	"/>
	<polygon opacity="0.3" fill="#4846A5" points="480.3,985.42 459.86,997.21 439.43,985.42 459.86,973.62 	"/>
	<polygon opacity="0.3" fill="#4846A5" points="729.89,919.91 709.46,931.71 689.03,919.91 709.46,908.12 	"/>
	<polygon opacity="0.3" fill="#4846A5" points="248.86,735.47 228.43,747.27 207.99,735.47 228.42,723.68 	"/>
	<polygon opacity="0.3" fill="#4846A5" points="743.58,735.15 723.15,746.95 702.72,735.15 723.15,723.36 	"/>
	<polygon opacity="0.1" fill="#4846A5" points="114.97,756.15 94.54,767.95 74.11,756.15 94.54,744.36 	"/>
	<g>
		<linearGradient id="SVGID_29_" gradientUnits="userSpaceOnUse" x1="98.5169" y1="657.6194" x2="278.1331" y2="657.6194">
			<stop  offset="0" style="stop-color:#42E8E0"/>
			<stop  offset="0.1507" style="stop-color:#43E3E0"/>
			<stop  offset="0.3285" style="stop-color:#45D5DF"/>
			<stop  offset="0.5199" style="stop-color:#49BDDD"/>
			<stop  offset="0.7209" style="stop-color:#4E9CDB"/>
			<stop  offset="0.9274" style="stop-color:#5472D8"/>
			<stop  offset="1" style="stop-color:#5761D7"/>
		</linearGradient>
		<path fill="url(#SVGID_29_)" d="M188.33,711.05c-0.65,0-1.3-0.17-1.86-0.5l-86.08-49.7c-1.15-0.67-1.87-1.91-1.87-3.24
			c0-1.33,0.71-2.57,1.86-3.23l86.07-49.7c1.15-0.66,2.58-0.67,3.74,0l86.07,49.69c1.15,0.66,1.87,1.9,1.87,3.24
			c0,1.33-0.72,2.57-1.87,3.24l-86.07,49.7C189.62,710.88,188.98,711.05,188.33,711.05z M188.51,706.99h0.02H188.51z M102.99,657.62
			l85.33,49.27l85.33-49.27l-85.33-49.27L102.99,657.62z"/>
		<linearGradient id="SVGID_30_" gradientUnits="userSpaceOnUse" x1="110.7836" y1="654.1688" x2="221.2907" y2="654.1688">
			<stop  offset="0.2473" style="stop-color:#5761D7"/>
			<stop  offset="0.4363" style="stop-color:#6C74DF"/>
			<stop  offset="0.8245" style="stop-color:#A2A6F5"/>
			<stop  offset="1" style="stop-color:#BCBEFF"/>
		</linearGradient>
		<polygon fill="url(#SVGID_30_)" points="265.87,639.61 265.87,623.96 188.32,666.75 110.78,623.96 110.78,639.61 188.33,684.38 		
			"/>
		<linearGradient id="SVGID_31_" gradientUnits="userSpaceOnUse" x1="110.7836" y1="623.9607" x2="265.8658" y2="623.9607">
			<stop  offset="0" style="stop-color:#C0BFF6"/>
			<stop  offset="0.2938" style="stop-color:#C5C4F7"/>
			<stop  offset="0.6399" style="stop-color:#D3D2F9"/>
			<stop  offset="1" style="stop-color:#E9E9FD"/>
		</linearGradient>
		<polygon fill="url(#SVGID_31_)" points="188.33,668.73 110.78,623.96 188.32,579.19 265.87,623.96 		"/>
		<polygon opacity="0.5" fill="#FFFFFF" points="188.33,667.44 111.9,623.32 110.78,623.96 188.33,668.73 265.87,623.96 
			264.75,623.32 		"/>
		<polygon fill="#0F054C" points="188.33,651.64 140.39,623.96 188.32,596.28 236.26,623.96 		"/>
		<g>
			<linearGradient id="SVGID_32_" gradientUnits="userSpaceOnUse" x1="140.3876" y1="623.9612" x2="236.2617" y2="623.9612">
				<stop  offset="0" style="stop-color:#42E8E0"/>
				<stop  offset="0.1507" style="stop-color:#43E3E0"/>
				<stop  offset="0.3285" style="stop-color:#45D5DF"/>
				<stop  offset="0.5199" style="stop-color:#49BDDD"/>
				<stop  offset="0.7209" style="stop-color:#4E9CDB"/>
				<stop  offset="0.9274" style="stop-color:#5472D8"/>
				<stop  offset="1" style="stop-color:#5761D7"/>
			</linearGradient>
			<polygon opacity="0.5" fill="url(#SVGID_32_)" points="188.33,651.64 140.39,623.96 188.32,596.28 236.26,623.96 			"/>
			<g>
				<linearGradient id="SVGID_33_" gradientUnits="userSpaceOnUse" x1="188.324" y1="590.7635" x2="236.2617" y2="590.7635">
					<stop  offset="0" style="stop-color:#42E8E0"/>
					<stop  offset="0.1507" style="stop-color:#43E3E0"/>
					<stop  offset="0.3285" style="stop-color:#45D5DF"/>
					<stop  offset="0.5199" style="stop-color:#49BDDD"/>
					<stop  offset="0.7209" style="stop-color:#4E9CDB"/>
					<stop  offset="0.9274" style="stop-color:#5472D8"/>
					<stop  offset="1" style="stop-color:#5761D7"/>
				</linearGradient>
				<polygon opacity="0.5" fill="url(#SVGID_33_)" points="188.32,557.57 236.26,585.24 236.26,623.96 188.32,596.28 				"/>
				<linearGradient id="SVGID_34_" gradientUnits="userSpaceOnUse" x1="140.3876" y1="590.7631" x2="188.3254" y2="590.7631">
					<stop  offset="0" style="stop-color:#42E8E0"/>
					<stop  offset="0.1507" style="stop-color:#43E3E0"/>
					<stop  offset="0.3285" style="stop-color:#45D5DF"/>
					<stop  offset="0.5199" style="stop-color:#49BDDD"/>
					<stop  offset="0.7209" style="stop-color:#4E9CDB"/>
					<stop  offset="0.9274" style="stop-color:#5472D8"/>
					<stop  offset="1" style="stop-color:#5761D7"/>
				</linearGradient>
				<polygon opacity="0.5" fill="url(#SVGID_34_)" points="188.33,596.28 140.39,623.96 140.39,585.24 188.32,557.57 				"/>
				<linearGradient id="SVGID_35_" gradientUnits="userSpaceOnUse" x1="140.3876" y1="585.2422" x2="236.2617" y2="585.2422">
					<stop  offset="0" style="stop-color:#42E8E0"/>
					<stop  offset="0.1507" style="stop-color:#43E3E0"/>
					<stop  offset="0.3285" style="stop-color:#45D5DF"/>
					<stop  offset="0.5199" style="stop-color:#49BDDD"/>
					<stop  offset="0.7209" style="stop-color:#4E9CDB"/>
					<stop  offset="0.9274" style="stop-color:#5472D8"/>
					<stop  offset="1" style="stop-color:#5761D7"/>
				</linearGradient>
				<polygon opacity="0.5" fill="url(#SVGID_35_)" points="188.33,612.92 140.39,585.24 188.32,557.57 236.26,585.24 				"/>
				<linearGradient id="SVGID_36_" gradientUnits="userSpaceOnUse" x1="188.3254" y1="618.4399" x2="236.2617" y2="618.4399">
					<stop  offset="0" style="stop-color:#42E8E0"/>
					<stop  offset="0.1507" style="stop-color:#43E3E0"/>
					<stop  offset="0.3285" style="stop-color:#45D5DF"/>
					<stop  offset="0.5199" style="stop-color:#49BDDD"/>
					<stop  offset="0.7209" style="stop-color:#4E9CDB"/>
					<stop  offset="0.9274" style="stop-color:#5472D8"/>
					<stop  offset="1" style="stop-color:#5761D7"/>
				</linearGradient>
				<polygon opacity="0.5" fill="url(#SVGID_36_)" points="188.33,612.92 188.33,651.64 236.26,623.96 236.26,585.24 				"/>
			</g>
			<linearGradient id="SVGID_37_" gradientUnits="userSpaceOnUse" x1="140.3876" y1="618.4395" x2="188.3254" y2="618.4395">
				<stop  offset="0" style="stop-color:#42E8E0"/>
				<stop  offset="0.1507" style="stop-color:#43E3E0"/>
				<stop  offset="0.3285" style="stop-color:#45D5DF"/>
				<stop  offset="0.5199" style="stop-color:#49BDDD"/>
				<stop  offset="0.7209" style="stop-color:#4E9CDB"/>
				<stop  offset="0.9274" style="stop-color:#5472D8"/>
				<stop  offset="1" style="stop-color:#5761D7"/>
			</linearGradient>
			<polygon opacity="0.5" fill="url(#SVGID_37_)" points="140.39,585.24 140.39,623.96 188.33,651.64 188.33,612.92 			"/>
		</g>
	</g>
</g>
<g display="none" opacity="0.67">
	<polygon id="c_1_" display="inline" fill="#23234C" points="217.6,834.75 212.16,846.06 232.53,845.41 236.96,850.52 
		234.67,855.15 229.65,850.49 203.48,851.47 213.75,829.49 242.12,828.88 239.82,833.53 	"/>
	<polygon display="inline" fill="#27378A" points="204.17,851.17 229.65,850.49 234.67,855.15 213.16,855.27 221.92,867.43 
		247.13,867.68 251,871.75 220.59,872.31 	"/>
	<polygon id="top_1_" display="inline" fill="#27378A" points="242.12,828.88 214.31,829.51 212.13,825.32 244.18,824.13 262,849.9 
		256.5,849.66 	"/>
	<polygon display="inline" fill="#23234C" points="218.37,876.83 220.59,872.31 251,871.75 248.32,876.12 	"/>
	<polygon id="topRight_1_" display="inline" fill="#383940" points="242.12,828.88 256.5,849.66 254.31,854.11 239.82,833.53 	"/>
	<polygon display="inline" fill="#23234C" points="254.28,854.14 256.5,849.66 262,849.9 259.62,854.45 254.31,854.11 	"/>
	<polygon id="left_1_" display="inline" fill="#383940" points="212.13,825.32 214.31,829.51 204.17,851.17 220.59,872.31 
		218.37,876.83 198.98,851.86 	"/>
</g>
</svg>
